<?xml version="1.0" standalone="no"?>
<svg xmlns:xlink="http://www.w3.org/1999/xlink" id="wave" style="transform:rotate(0deg); transition: 0.3s" viewBox="0 0 1440 490" version="1.1" xmlns="http://www.w3.org/2000/svg"><defs><linearGradient id="sw-gradient-0" x1="0" x2="0" y1="1" y2="0"><stop stop-color="rgba(243, 106, 62, 1)" offset="0%"/><stop stop-color="rgba(255, 179, 11, 1)" offset="100%"/></linearGradient></defs><path style="transform:translate(0, 0px); opacity:1" fill="url(#sw-gradient-0)" d="M0,392L40,351.2C80,310,160,229,240,228.7C320,229,400,310,480,343C560,376,640,359,720,334.8C800,310,880,278,960,261.3C1040,245,1120,245,1200,277.7C1280,310,1360,376,1440,392C1520,408,1600,376,1680,318.5C1760,261,1840,180,1920,179.7C2000,180,2080,261,2160,318.5C2240,376,2320,408,2400,400.2C2480,392,2560,343,2640,277.7C2720,212,2800,131,2880,98C2960,65,3040,82,3120,106.2C3200,131,3280,163,3360,220.5C3440,278,3520,359,3600,392C3680,425,3760,408,3840,375.7C3920,343,4000,294,4080,277.7C4160,261,4240,278,4320,302.2C4400,327,4480,359,4560,367.5C4640,376,4720,359,4800,367.5C4880,376,4960,408,5040,367.5C5120,327,5200,212,5280,155.2C5360,98,5440,98,5520,81.7C5600,65,5680,33,5720,16.3L5760,0L5760,490L5720,490C5680,490,5600,490,5520,490C5440,490,5360,490,5280,490C5200,490,5120,490,5040,490C4960,490,4880,490,4800,490C4720,490,4640,490,4560,490C4480,490,4400,490,4320,490C4240,490,4160,490,4080,490C4000,490,3920,490,3840,490C3760,490,3680,490,3600,490C3520,490,3440,490,3360,490C3280,490,3200,490,3120,490C3040,490,2960,490,2880,490C2800,490,2720,490,2640,490C2560,490,2480,490,2400,490C2320,490,2240,490,2160,490C2080,490,2000,490,1920,490C1840,490,1760,490,1680,490C1600,490,1520,490,1440,490C1360,490,1280,490,1200,490C1120,490,1040,490,960,490C880,490,800,490,720,490C640,490,560,490,480,490C400,490,320,490,240,490C160,490,80,490,40,490L0,490Z"/><defs><linearGradient id="sw-gradient-1" x1="0" x2="0" y1="1" y2="0"><stop stop-color="rgba(243, 106, 62, 1)" offset="0%"/><stop stop-color="rgba(255, 179, 11, 1)" offset="100%"/></linearGradient></defs><path style="transform:translate(0, 50px); opacity:0.9" fill="url(#sw-gradient-1)" d="M0,147L40,187.8C80,229,160,310,240,343C320,376,400,359,480,334.8C560,310,640,278,720,285.8C800,294,880,343,960,375.7C1040,408,1120,425,1200,416.5C1280,408,1360,376,1440,326.7C1520,278,1600,212,1680,171.5C1760,131,1840,114,1920,163.3C2000,212,2080,327,2160,367.5C2240,408,2320,376,2400,326.7C2480,278,2560,212,2640,228.7C2720,245,2800,343,2880,383.8C2960,425,3040,408,3120,343C3200,278,3280,163,3360,138.8C3440,114,3520,180,3600,171.5C3680,163,3760,82,3840,98C3920,114,4000,229,4080,302.2C4160,376,4240,408,4320,400.2C4400,392,4480,343,4560,343C4640,343,4720,392,4800,416.5C4880,441,4960,441,5040,408.3C5120,376,5200,310,5280,245C5360,180,5440,114,5520,138.8C5600,163,5680,278,5720,334.8L5760,392L5760,490L5720,490C5680,490,5600,490,5520,490C5440,490,5360,490,5280,490C5200,490,5120,490,5040,490C4960,490,4880,490,4800,490C4720,490,4640,490,4560,490C4480,490,4400,490,4320,490C4240,490,4160,490,4080,490C4000,490,3920,490,3840,490C3760,490,3680,490,3600,490C3520,490,3440,490,3360,490C3280,490,3200,490,3120,490C3040,490,2960,490,2880,490C2800,490,2720,490,2640,490C2560,490,2480,490,2400,490C2320,490,2240,490,2160,490C2080,490,2000,490,1920,490C1840,490,1760,490,1680,490C1600,490,1520,490,1440,490C1360,490,1280,490,1200,490C1120,490,1040,490,960,490C880,490,800,490,720,490C640,490,560,490,480,490C400,490,320,490,240,490C160,490,80,490,40,490L0,490Z"/><defs><linearGradient id="sw-gradient-2" x1="0" x2="0" y1="1" y2="0"><stop stop-color="rgba(243, 106, 62, 1)" offset="0%"/><stop stop-color="rgba(255, 179, 11, 1)" offset="100%"/></linearGradient></defs><path style="transform:translate(0, 100px); opacity:0.8" fill="url(#sw-gradient-2)" d="M0,196L40,236.8C80,278,160,359,240,359.3C320,359,400,278,480,236.8C560,196,640,196,720,179.7C800,163,880,131,960,138.8C1040,147,1120,196,1200,187.8C1280,180,1360,114,1440,114.3C1520,114,1600,180,1680,187.8C1760,196,1840,147,1920,130.7C2000,114,2080,131,2160,179.7C2240,229,2320,310,2400,318.5C2480,327,2560,261,2640,261.3C2720,261,2800,327,2880,318.5C2960,310,3040,229,3120,228.7C3200,229,3280,310,3360,326.7C3440,343,3520,294,3600,236.8C3680,180,3760,114,3840,122.5C3920,131,4000,212,4080,204.2C4160,196,4240,98,4320,106.2C4400,114,4480,229,4560,253.2C4640,278,4720,212,4800,204.2C4880,196,4960,245,5040,294C5120,343,5200,392,5280,375.7C5360,359,5440,278,5520,245C5600,212,5680,229,5720,236.8L5760,245L5760,490L5720,490C5680,490,5600,490,5520,490C5440,490,5360,490,5280,490C5200,490,5120,490,5040,490C4960,490,4880,490,4800,490C4720,490,4640,490,4560,490C4480,490,4400,490,4320,490C4240,490,4160,490,4080,490C4000,490,3920,490,3840,490C3760,490,3680,490,3600,490C3520,490,3440,490,3360,490C3280,490,3200,490,3120,490C3040,490,2960,490,2880,490C2800,490,2720,490,2640,490C2560,490,2480,490,2400,490C2320,490,2240,490,2160,490C2080,490,2000,490,1920,490C1840,490,1760,490,1680,490C1600,490,1520,490,1440,490C1360,490,1280,490,1200,490C1120,490,1040,490,960,490C880,490,800,490,720,490C640,490,560,490,480,490C400,490,320,490,240,490C160,490,80,490,40,490L0,490Z"/><defs><linearGradient id="sw-gradient-3" x1="0" x2="0" y1="1" y2="0"><stop stop-color="rgba(243, 106, 62, 1)" offset="0%"/><stop stop-color="rgba(255, 179, 11, 1)" offset="100%"/></linearGradient></defs><path style="transform:translate(0, 150px); opacity:0.7" fill="url(#sw-gradient-3)" d="M0,441L40,408.3C80,376,160,310,240,236.8C320,163,400,82,480,89.8C560,98,640,196,720,245C800,294,880,294,960,277.7C1040,261,1120,229,1200,228.7C1280,229,1360,261,1440,277.7C1520,294,1600,294,1680,245C1760,196,1840,98,1920,73.5C2000,49,2080,98,2160,147C2240,196,2320,245,2400,253.2C2480,261,2560,229,2640,236.8C2720,245,2800,294,2880,277.7C2960,261,3040,180,3120,196C3200,212,3280,327,3360,334.8C3440,343,3520,245,3600,220.5C3680,196,3760,245,3840,245C3920,245,4000,196,4080,163.3C4160,131,4240,114,4320,147C4400,180,4480,261,4560,294C4640,327,4720,310,4800,261.3C4880,212,4960,131,5040,122.5C5120,114,5200,180,5280,196C5360,212,5440,180,5520,171.5C5600,163,5680,180,5720,187.8L5760,196L5760,490L5720,490C5680,490,5600,490,5520,490C5440,490,5360,490,5280,490C5200,490,5120,490,5040,490C4960,490,4880,490,4800,490C4720,490,4640,490,4560,490C4480,490,4400,490,4320,490C4240,490,4160,490,4080,490C4000,490,3920,490,3840,490C3760,490,3680,490,3600,490C3520,490,3440,490,3360,490C3280,490,3200,490,3120,490C3040,490,2960,490,2880,490C2800,490,2720,490,2640,490C2560,490,2480,490,2400,490C2320,490,2240,490,2160,490C2080,490,2000,490,1920,490C1840,490,1760,490,1680,490C1600,490,1520,490,1440,490C1360,490,1280,490,1200,490C1120,490,1040,490,960,490C880,490,800,490,720,490C640,490,560,490,480,490C400,490,320,490,240,490C160,490,80,490,40,490L0,490Z"/></svg>